<svg width="43" height="51" viewBox="0 0 43 51" fill="none" xmlns="http://www.w3.org/2000/svg">
<path d="M41.6895 12.8789C41.7036 12.4464 41.6392 12.0149 41.4993 11.6053C41.4496 11.459 41.3907 11.316 41.3228 11.1772C41.1147 10.7517 40.8244 10.3714 40.4686 10.0584C40.1128 9.74539 39.6985 9.5058 39.2497 9.35345L18.0965 2.15918C17.1926 1.85275 16.2041 1.91707 15.348 2.338C14.492 2.75893 13.8383 3.5021 13.5304 4.40441L2.15786 37.8428C1.85179 38.7457 1.91685 39.7333 2.33876 40.5889C2.76067 41.4445 3.50496 42.0981 4.40831 42.4064L25.5615 49.6006C26.4654 49.9071 27.4539 49.8427 28.31 49.4218C29.166 49.0009 29.8197 48.2577 30.1276 47.3554L41.5001 13.917C41.6144 13.5823 41.6782 13.2325 41.6895 12.8789ZM29.9892 47.3083C29.6936 48.1739 29.0665 48.8867 28.2452 49.2905C27.424 49.6943 26.4758 49.7561 25.6085 49.4623L4.45534 42.268C3.58881 41.9722 2.87486 41.3451 2.47012 40.5243C2.06538 39.7035 2.00287 38.7561 2.29633 37.8899L13.6688 4.45151C13.9644 3.58596 14.5916 2.87309 15.4128 2.46929C16.234 2.06548 17.1822 2.00369 18.0495 2.29748L39.2027 9.49176C39.6466 9.64253 40.0551 9.88222 40.4033 10.1962C40.7514 10.5101 41.0317 10.8917 41.2272 11.3175C41.2489 11.365 41.2697 11.413 41.2895 11.4614C41.6032 12.2295 41.6288 13.0848 41.3617 13.8699L29.9892 47.3083Z" fill="#423ED8" stroke="#423ED8" stroke-width="2"/>
<path d="M20.6636 42.3064C20.6633 42.3572 20.6607 42.408 20.6567 42.4584L21.1704 42.6331C21.2266 42.6038 21.2808 42.5707 21.3324 42.5339L20.6636 42.3064ZM17.4197 7.33334L7.04773 37.8299L26.1904 44.3404L36.5624 13.8438L17.4197 7.33334ZM26.099 44.155L7.23324 37.7387L17.5112 7.51874L36.3769 13.9351L26.099 44.155ZM20.6636 42.3064C20.6633 42.3572 20.6607 42.408 20.6567 42.4584L21.1704 42.6331C21.2266 42.6038 21.2808 42.5707 21.3324 42.5339L20.6636 42.3064Z" stroke="#423ED8" stroke-width="2"/>
<path d="M20.1444 31.2366C18.6289 30.8197 17.2174 30.0905 16.0012 29.0961C15.9286 29.0374 15.8747 28.959 15.846 28.8704C15.8173 28.7818 15.815 28.6868 15.8395 28.597L16.8503 24.8236C16.8835 24.7 16.9646 24.5947 17.0757 24.5308C17.1867 24.4669 17.3188 24.4496 17.4428 24.4827L25.86 26.7387C25.984 26.7721 26.0897 26.8531 26.1539 26.964C26.2182 27.0749 26.2357 27.2067 26.2028 27.3303L25.192 31.1037C25.1683 31.1937 25.1188 31.2748 25.0497 31.3372C24.9805 31.3996 24.8946 31.4405 24.8025 31.4551C23.2521 31.708 21.6652 31.6335 20.1444 31.2366Z" fill="#423ED8"/>
<path d="M20.9621 28.1794C20.8997 28.1627 20.8412 28.1337 20.7901 28.0942L14.8675 23.4974C14.7911 23.4381 14.7343 23.3574 14.7043 23.2656C14.6742 23.1739 14.6724 23.0753 14.6991 22.9827C14.7258 22.89 14.7797 22.8074 14.8538 22.7457C14.928 22.6839 15.0191 22.6458 15.1153 22.6361L22.4664 21.9004C22.5849 21.8883 22.7037 21.9204 22.7999 21.9905L28.709 26.2804C28.787 26.337 28.8462 26.4154 28.8793 26.5057C28.9123 26.596 28.9176 26.6941 28.8945 26.7873C28.8713 26.8805 28.8208 26.9647 28.7494 27.0291C28.678 27.0934 28.5889 27.135 28.4936 27.1486L21.156 28.1913C21.0912 28.2004 21.0253 28.1964 20.9621 28.1794Z" fill="#423ED8"/>
<path d="M16.4361 29.4879C16.7805 29.5802 17.1342 29.3766 17.2262 29.0333C17.3181 28.69 17.1135 28.3368 16.7692 28.2445C16.4248 28.1522 16.0711 28.3557 15.9792 28.6991C15.8872 29.0424 16.0918 29.3956 16.4361 29.4879Z" fill="#3F3D56"/>
<path opacity="0.2" d="M28.6231 26.7561L21.2855 27.7989C21.2283 27.807 21.17 27.8035 21.1141 27.7887C21.0583 27.7739 21.0059 27.748 20.9603 27.7125L15.0377 23.1158C14.963 23.0589 14.9095 22.9788 14.8856 22.8883C14.8425 22.9313 14.8091 22.983 14.7876 23.0399C14.7661 23.0967 14.757 23.1576 14.7609 23.2183C14.7648 23.279 14.7816 23.3382 14.8101 23.392C14.8387 23.4458 14.8784 23.4929 14.9266 23.5302L20.8493 28.127C20.8949 28.1624 20.9472 28.1883 21.0031 28.2032C21.059 28.218 21.1173 28.2214 21.1745 28.2133L28.5121 27.1706C28.5723 27.1621 28.63 27.141 28.6813 27.1086C28.7327 27.0762 28.7765 27.0333 28.81 26.9827C28.8435 26.9322 28.8659 26.8751 28.8756 26.8152C28.8853 26.7554 28.8822 26.6941 28.8664 26.6355C28.8009 26.7014 28.7154 26.7438 28.6231 26.7561Z" fill="black"/>
<path d="M16.6557 28.8778C16.6833 28.8852 16.7126 28.8813 16.7373 28.8671C16.762 28.8529 16.78 28.8295 16.7874 28.802L17.7161 25.335L21.4769 25.0087C21.5043 25.0165 21.5338 25.0131 21.5587 24.9992C21.5836 24.9854 21.6019 24.9622 21.6097 24.9349C21.6175 24.9075 21.614 24.8782 21.6001 24.8533C21.5862 24.8284 21.5629 24.8101 21.5355 24.8023L17.7747 25.1286C17.7473 25.1206 17.7186 25.1182 17.6902 25.1216C17.6619 25.1249 17.6345 25.134 17.6098 25.1483C17.585 25.1622 17.5632 25.181 17.5457 25.2035C17.5283 25.226 17.5156 25.2518 17.5083 25.2793L16.5796 28.7463C16.5722 28.7738 16.5761 28.8031 16.5904 28.8277C16.6047 28.8524 16.6282 28.8704 16.6557 28.8778Z" fill="#3F3D56"/>
</svg>
