<svg width="660" height="477" viewBox="0 0 660 477" fill="none" xmlns="http://www.w3.org/2000/svg">
<path d="M420.585 357.592V472.578H131.659C98.7396 472.578 71.9561 446.786 71.9561 415.085C71.9561 383.384 98.7395 357.592 131.659 357.592H420.585Z" fill="#F2F2F2"/>
<path d="M427.682 471.693C427.681 472.866 427.214 473.99 426.382 474.82C425.551 475.649 424.423 476.115 423.246 476.116H126.513C110.396 476.116 94.9403 469.732 83.5444 458.37C72.1486 447.007 65.7464 431.596 65.7464 415.527C65.7464 399.458 72.1486 384.047 83.5444 372.685C94.9403 361.322 110.396 354.939 126.513 354.939H423.246C424.423 354.939 425.551 355.405 426.383 356.234C427.215 357.063 427.682 358.188 427.682 359.361C427.682 360.534 427.215 361.659 426.383 362.488C425.551 363.318 424.423 363.784 423.246 363.784H126.513C112.749 363.784 99.5494 369.235 89.8171 378.939C80.0849 388.643 74.6174 401.804 74.6174 415.527C74.6174 429.25 80.0849 442.411 89.8171 452.115C99.5494 461.819 112.749 467.27 126.513 467.27H423.246C424.423 467.271 425.551 467.737 426.382 468.566C427.214 469.396 427.681 470.52 427.682 471.693Z" fill="#423ED8"/>
<path d="M420.585 384.127H110.101C109.866 384.127 109.64 384.034 109.474 383.868C109.308 383.702 109.214 383.477 109.214 383.243C109.214 383.008 109.308 382.783 109.474 382.617C109.64 382.451 109.866 382.358 110.101 382.358H420.585C420.82 382.358 421.046 382.451 421.212 382.617C421.379 382.783 421.472 383.008 421.472 383.243C421.472 383.477 421.379 383.702 421.212 383.868C421.046 384.034 420.82 384.127 420.585 384.127Z" fill="#CCCCCC"/>
<path d="M420.585 405.355H110.101C109.866 405.355 109.64 405.262 109.474 405.096C109.308 404.93 109.214 404.705 109.214 404.471C109.214 404.236 109.308 404.011 109.474 403.845C109.64 403.679 109.866 403.586 110.101 403.586H420.585C420.82 403.586 421.046 403.679 421.212 403.845C421.379 404.011 421.472 404.236 421.472 404.471C421.472 404.705 421.379 404.93 421.212 405.096C421.046 405.262 420.82 405.355 420.585 405.355Z" fill="#CCCCCC"/>
<path d="M420.585 426.583H110.101C109.866 426.583 109.64 426.49 109.474 426.324C109.308 426.158 109.214 425.933 109.214 425.699C109.214 425.464 109.308 425.239 109.474 425.073C109.64 424.908 109.866 424.814 110.101 424.814H420.585C420.82 424.814 421.046 424.908 421.212 425.073C421.379 425.239 421.472 425.464 421.472 425.699C421.472 425.933 421.379 426.158 421.212 426.324C421.046 426.49 420.82 426.583 420.585 426.583Z" fill="#CCCCCC"/>
<path d="M420.585 447.811H110.101C109.866 447.811 109.64 447.718 109.474 447.552C109.308 447.386 109.214 447.161 109.214 446.927C109.214 446.692 109.308 446.467 109.474 446.301C109.64 446.136 109.866 446.042 110.101 446.042H420.585C420.82 446.042 421.046 446.136 421.212 446.301C421.379 446.467 421.472 446.692 421.472 446.927C421.472 447.161 421.379 447.386 421.212 447.552C421.046 447.718 420.82 447.811 420.585 447.811Z" fill="#CCCCCC"/>
<path d="M643.883 379.237L571.527 468.774L346.546 288.025C320.912 267.431 316.286 230.592 336.234 205.908C356.182 181.223 393.268 177.894 418.902 198.488L643.883 379.237Z" fill="#F2F2F2"/>
<path d="M577.61 472.524C576.871 473.437 575.8 474.021 574.63 474.146C573.461 474.271 572.289 473.929 571.373 473.193L340.312 287.561C327.763 277.479 319.744 262.839 318.021 246.862C316.297 230.885 321.009 214.88 331.121 202.367C341.232 189.855 355.915 181.859 371.939 180.141C387.963 178.422 404.015 183.121 416.564 193.203L647.625 378.835C648.079 379.2 648.456 379.649 648.736 380.159C649.015 380.669 649.191 381.229 649.254 381.806C649.316 382.384 649.264 382.968 649.1 383.526C648.936 384.083 648.663 384.603 648.298 385.055C647.932 385.508 647.481 385.884 646.969 386.162C646.458 386.441 645.896 386.616 645.317 386.678C644.738 386.74 644.152 386.687 643.593 386.524C643.034 386.36 642.513 386.088 642.059 385.723L410.998 200.09C405.692 195.824 399.595 192.641 393.054 190.725C386.514 188.808 379.66 188.196 372.882 188.921C366.104 189.647 359.536 191.697 353.553 194.954C347.57 198.211 342.289 202.612 338.013 207.904C333.736 213.197 330.546 219.277 328.627 225.799C326.707 232.321 326.095 239.156 326.826 245.913C327.556 252.671 329.615 259.219 332.884 265.183C336.153 271.147 340.568 276.411 345.878 280.673L576.939 466.306C577.854 467.042 578.439 468.111 578.565 469.277C578.691 470.443 578.347 471.611 577.61 472.524Z" fill="#CCCCCC"/>
<path d="M627.185 399.899L385.418 205.665C385.327 205.592 385.252 205.502 385.196 205.4C385.14 205.298 385.105 205.186 385.092 205.07C385.08 204.955 385.09 204.838 385.123 204.727C385.156 204.615 385.21 204.511 385.283 204.421C385.357 204.33 385.447 204.255 385.549 204.2C385.651 204.144 385.764 204.109 385.879 204.096C385.995 204.084 386.112 204.094 386.224 204.127C386.336 204.16 386.44 204.214 386.531 204.287L628.299 398.522C628.389 398.594 628.465 398.684 628.521 398.786C628.577 398.888 628.612 399 628.625 399.116C628.637 399.231 628.627 399.348 628.594 399.46C628.561 399.571 628.507 399.675 628.434 399.766C628.36 399.857 628.27 399.932 628.168 399.987C628.065 400.043 627.953 400.078 627.837 400.091C627.721 400.103 627.604 400.092 627.492 400.059C627.38 400.027 627.276 399.972 627.185 399.899Z" fill="#CCCCCC"/>
<path d="M613.827 416.429L372.06 222.194C371.877 222.047 371.76 221.834 371.735 221.6C371.71 221.367 371.779 221.134 371.926 220.951C372.074 220.769 372.288 220.652 372.522 220.627C372.755 220.602 372.99 220.67 373.173 220.817L614.941 415.051C615.031 415.124 615.107 415.214 615.163 415.316C615.219 415.418 615.254 415.53 615.267 415.646C615.279 415.761 615.269 415.878 615.236 415.99C615.203 416.101 615.149 416.205 615.076 416.296C615.002 416.386 614.912 416.462 614.81 416.517C614.707 416.573 614.595 416.608 614.479 416.62C614.363 416.633 614.246 416.622 614.134 416.589C614.022 416.557 613.918 416.502 613.827 416.429Z" fill="#CCCCCC"/>
<path d="M600.469 432.959L358.702 238.724C358.519 238.577 358.401 238.363 358.376 238.13C358.351 237.897 358.42 237.663 358.568 237.481C358.715 237.298 358.93 237.181 359.163 237.156C359.397 237.131 359.632 237.2 359.815 237.347L601.583 431.581C601.673 431.654 601.749 431.744 601.805 431.846C601.86 431.948 601.895 432.06 601.908 432.175C601.92 432.291 601.91 432.408 601.877 432.519C601.844 432.631 601.79 432.735 601.717 432.825C601.644 432.915 601.553 432.991 601.451 433.046C601.349 433.102 601.237 433.137 601.121 433.149C601.005 433.162 600.888 433.151 600.776 433.119C600.664 433.086 600.56 433.032 600.469 432.959Z" fill="#CCCCCC"/>
<path d="M587.111 449.489L345.344 255.254C345.253 255.181 345.178 255.091 345.122 254.989C345.066 254.888 345.031 254.776 345.018 254.66C345.006 254.545 345.016 254.428 345.049 254.316C345.082 254.205 345.136 254.101 345.21 254.011C345.283 253.92 345.373 253.845 345.475 253.789C345.577 253.734 345.69 253.699 345.805 253.686C345.921 253.674 346.038 253.684 346.15 253.717C346.262 253.75 346.366 253.804 346.457 253.877L588.225 448.111C588.315 448.184 588.391 448.274 588.447 448.376C588.503 448.478 588.538 448.59 588.551 448.705C588.563 448.821 588.553 448.938 588.52 449.05C588.487 449.161 588.433 449.265 588.36 449.356C588.286 449.446 588.196 449.521 588.094 449.577C587.991 449.633 587.879 449.668 587.763 449.68C587.647 449.692 587.53 449.682 587.418 449.649C587.306 449.616 587.202 449.562 587.111 449.489Z" fill="#CCCCCC"/>
<path d="M344.831 98.1367C344.928 95.1759 344.487 92.2217 343.53 89.4174C343.19 88.416 342.786 87.4372 342.322 86.487C340.898 83.5737 338.911 80.9705 336.475 78.8276C334.04 76.6847 331.205 75.0445 328.133 74.0016L183.362 24.7501C177.175 22.6524 170.41 23.0926 164.551 25.9743C158.692 28.856 154.219 33.9437 152.111 40.1208L74.2782 269.037C72.1835 275.219 72.6287 281.98 75.5162 287.837C78.4038 293.694 83.4977 298.169 89.6801 300.279L234.452 349.531C240.638 351.629 247.403 351.188 253.262 348.307C259.121 345.425 263.595 340.337 265.702 334.16L343.535 105.244C344.317 102.952 344.754 100.557 344.831 98.1367ZM264.755 333.838C262.732 339.763 258.44 344.643 252.819 347.408C247.199 350.172 240.709 350.595 234.774 348.584L90.0021 299.332C84.0715 297.307 79.1853 293.014 76.4153 287.395C73.6452 281.776 73.2175 275.29 75.2258 269.36L153.059 40.4432C155.082 34.5177 159.374 29.6375 164.994 26.8731C170.615 24.1086 177.105 23.6857 183.04 25.6969L327.811 74.9484C330.85 75.9806 333.646 77.6215 336.028 79.7707C338.411 81.9199 340.33 84.5321 341.667 87.4475C341.816 87.7727 341.958 88.101 342.094 88.4324C344.241 93.6911 344.416 99.5463 342.588 104.921L264.755 333.838Z" stroke="#423ED8" stroke-width="3"/>
<path d="M222.322 183.402C219.574 170.317 206.984 165.468 206.984 165.468C206.984 165.468 195.089 159.648 181.472 173.52C168.779 186.45 153.442 197.886 168.257 206.963L174.22 198.936L172.723 209.231C174.951 210.172 177.23 210.991 179.548 211.684C196.921 216.976 213.042 223.26 214.61 216.919C216.694 208.491 224.966 195.992 222.322 183.402Z" fill="#2F2E41"/>
<path d="M185.909 212.411C185.523 213.647 185.074 214.937 184.103 215.793C182.177 217.492 179.119 216.804 176.779 217.863C174.318 218.977 173.142 221.743 172.185 224.267C171.184 226.907 170.167 229.639 170.296 232.459C170.428 234.033 170.742 235.587 171.233 237.088C171.786 239.017 172.352 240.943 172.929 242.865C173.223 243.937 173.599 244.983 174.056 245.996C175.349 248.68 177.681 250.716 180.118 252.431C181.692 253.539 183.444 254.581 185.369 254.614C186.669 254.557 187.949 254.267 189.146 253.758C190.785 253.173 192.45 252.573 193.846 251.536C196.022 249.92 197.324 247.413 198.492 244.969C201.946 237.741 204.873 230.272 207.25 222.622C207.567 221.808 207.699 220.933 207.636 220.062C207.334 218.003 205.054 216.81 204.299 214.87C203.653 213.212 204.234 211.357 204.816 209.676L206.297 205.397C206.458 205.048 206.509 204.66 206.444 204.281C206.345 204.056 206.203 203.852 206.025 203.682C205.847 203.512 205.638 203.378 205.408 203.289C202.892 201.939 200.249 200.839 197.519 200.003C195.305 199.325 191.164 197.711 188.856 198.286C186.76 198.808 187.874 202.596 187.688 204.449C187.365 207.156 186.769 209.823 185.909 212.411Z" fill="#A0616A"/>
<path d="M193.44 206.759C203.019 210.018 213.422 204.901 216.676 195.33C219.93 185.76 214.803 175.36 205.224 172.101C195.646 168.843 185.243 173.959 181.989 183.53C178.735 193.1 183.862 203.5 193.44 206.759Z" fill="#A0616A"/>
<path d="M177.597 229.923C177.051 227.909 176.742 225.839 176.677 223.754C176.693 221.67 177.242 219.522 178.6 217.941C177.096 216.217 174.252 216.231 172.315 217.449C170.379 218.666 169.195 220.778 168.339 222.898C167.484 225.019 166.866 227.256 165.677 229.209C163.045 233.53 157.873 236.059 155.96 240.742C154.078 245.35 155.913 250.545 155.993 255.523C156.015 258.616 155.421 261.682 154.246 264.542C153.874 265.468 153.449 266.523 153.888 267.42C154.131 267.841 154.467 268.201 154.868 268.475C161.616 273.776 169.814 276.825 177.866 279.793L191.164 284.696C191.942 285.069 192.811 285.211 193.667 285.106C195.122 284.778 195.845 283.18 196.344 281.777C200.65 269.69 204.263 257.37 207.872 245.058C209.18 240.595 210.494 236.106 211.024 231.485C211.158 230.309 211.183 228.958 210.335 228.13C209.617 227.429 208.51 227.348 207.508 227.374C202.825 227.504 198.292 229.045 194.502 231.796C190.419 234.773 187.469 239.007 183.434 242.035C180.507 244.231 180.224 241.353 179.638 238.802C178.959 235.842 178.278 232.882 177.597 229.923Z" fill="white"/>
<path d="M179.174 218.471C178.751 218.596 178.328 218.737 177.914 218.898C176.368 219.482 174.899 220.253 173.539 221.191C171.28 222.769 169.263 224.669 167.552 226.829C164.514 230.602 162.277 234.943 160.081 239.256C159.227 240.829 158.499 242.468 157.902 244.155C155.883 250.419 157.608 257.444 155.492 263.681C155.412 263.918 155.328 264.148 155.234 264.38C154.843 265.386 154.377 266.361 153.84 267.297C153.073 268.668 152.193 269.979 151.32 271.288C149.127 274.567 146.813 277.952 143.85 280.478C143.551 280.735 143.24 280.983 142.926 281.22L129.659 276.706C129.872 276.425 130.087 276.149 130.299 275.867C134.833 269.947 139.366 264.028 143.896 258.109C145.283 256.299 146.674 254.48 147.876 252.544C149.317 250.138 150.593 247.638 151.695 245.06C154.082 239.75 156.294 234.369 158.331 228.916C159.066 226.958 159.796 224.951 161.073 223.293C162.192 221.97 163.476 220.795 164.894 219.798C166.964 218.204 169.033 216.611 171.103 215.017C172.255 214.131 173.457 213.225 174.875 212.909C176.06 212.642 177.3 212.821 178.505 212.665C179.28 212.518 180.044 212.317 180.792 212.065C182.708 211.497 184.914 210.964 185.866 212.534C186.021 212.787 186.134 213.062 186.201 213.351C186.237 213.493 186.264 213.638 186.281 213.785C186.62 216.985 181.308 217.839 179.174 218.471Z" fill="#2F2E41"/>
<path d="M199.998 300.636L138.553 279.732C138.988 279.542 139.423 279.336 139.851 279.117C139.915 279.086 139.973 279.053 140.037 279.022C143.216 277.383 144.77 274.569 147.029 271.798C148.727 269.709 150.426 267.621 152.124 265.535C152.422 265.118 152.799 264.764 153.234 264.492C153.581 264.314 153.968 264.231 154.358 264.251C154.654 264.26 154.948 264.303 155.234 264.38C155.642 264.49 156.042 264.626 156.432 264.788C167.265 269.107 178.047 273.548 188.78 278.111C190.164 278.703 191.548 279.296 192.933 279.888C193.801 281.145 194.637 282.449 195.403 283.787C197.899 288.122 199.733 292.85 200.023 297.797C200.057 298.395 200.069 298.996 200.045 299.595C200.043 299.943 200.026 300.291 199.998 300.636Z" fill="#2F2E41"/>
<path d="M219.827 181.382L209.462 170.494L191.133 167.27L182.125 181.941L191.21 184.648L195.701 179.659L193.748 185.403L197.94 186.652L203.502 178.171L201.638 188.58L216.45 193.284L219.827 181.382Z" fill="#2F2E41"/>
<path d="M199.998 300.636L186.125 295.916C186.132 295.57 186.145 295.22 186.162 294.872C186.38 291.018 186.881 287.184 187.662 283.403C187.868 282.317 188.094 281.232 188.328 280.155C188.476 279.471 188.627 278.793 188.78 278.111C190.469 270.531 192.367 262.942 192.51 255.184C192.528 254.245 192.52 253.302 192.523 252.363C192.491 250.733 192.585 249.104 192.805 247.489C193.377 243.817 195.052 240.383 195.603 236.71C195.909 234.659 195.791 232.723 195.971 230.808C196.066 229.649 196.335 228.51 196.771 227.431C198.119 226.815 199.62 226.616 201.083 226.859C201.589 226.941 202.15 227.064 202.569 226.778C202.839 226.545 203.03 226.233 203.116 225.887C203.908 223.665 204.539 221.389 205.003 219.076C205.172 218.268 205.318 217.451 205.438 216.631C205.446 216.592 205.448 216.555 205.456 216.516C206.783 216.407 208.088 216.846 209.342 217.278C210.709 217.748 212.074 218.212 213.437 218.681C215.959 219.55 218.482 220.417 221.005 221.283C223.354 222.087 225.777 222.937 227.584 224.635C229.449 226.394 230.464 228.911 230.839 231.447C231.214 233.983 231.008 236.564 230.749 239.112C230.678 239.817 230.53 240.512 230.309 241.186C228.6 246.552 222.795 250.566 220.544 255.88C219.816 257.602 219.357 259.432 218.596 261.143C217.833 262.859 216.77 264.431 216.083 266.172C216.047 266.26 216.01 266.353 215.98 266.443C215.144 268.731 215.049 271.218 215.087 273.656C215.143 277.441 215.495 281.21 215.9 284.977C216.289 288.621 216.721 292.265 216.982 295.913C217.178 297.633 217.113 299.372 216.788 301.071C216.494 302.426 215.796 303.66 214.786 304.61C214.531 304.843 214.25 305.047 213.95 305.218L213.937 305.225C213.879 305.257 213.82 305.29 213.763 305.318L199.998 300.636Z" fill="#2F2E41"/>
<path d="M214.865 300.274C214.592 300.884 214.212 301.44 213.741 301.915C213.698 301.964 213.657 302.008 213.614 302.056C213.119 302.611 212.622 303.156 212.114 303.701C211.865 303.965 211.615 304.234 211.361 304.501L203.514 301.832C203.899 301.632 204.269 301.405 204.623 301.153C206.394 299.891 207.781 298.097 209.622 296.711C209.872 296.521 210.142 296.357 210.427 296.224C213.04 294.99 216.277 296.524 214.865 300.274Z" fill="#FFB8B8"/>
<path d="M218.321 306.869C218.527 306.592 218.718 306.305 218.894 306.008C219.036 305.776 219.167 305.546 219.291 305.308C220.103 303.741 220.673 302.05 221.619 300.56C222.963 298.424 225.562 296.239 224.857 293.818C225.997 293.962 227.154 293.854 228.247 293.503C229.304 293.07 230.196 292 230.031 290.867C229.867 289.749 228.759 288.67 229.298 287.675C229.502 287.371 229.766 287.112 230.075 286.915C231.178 286.027 231.998 284.836 232.433 283.488C232.868 282.14 232.899 280.694 232.522 279.328C232.3 278.566 231.953 277.846 231.779 277.068C231.616 276.135 231.572 275.184 231.646 274.24C231.776 269.369 231.179 264.506 229.876 259.81C229.549 258.88 229.383 257.902 229.384 256.917C229.535 255.9 229.832 254.911 230.267 253.98C231.662 250.187 231.501 245.965 230.535 242.044C230.464 241.756 230.386 241.471 230.309 241.186C229.315 237.578 227.72 234.168 226.129 230.779C224.954 230.908 223.954 230.911 223.093 231.717C222.646 232.184 222.285 232.726 222.025 233.318C219.759 237.776 217.573 242.293 215.516 246.849C214.479 249.153 213.431 251.474 212.893 253.942C212.355 256.411 212.356 259.068 213.366 261.382C213.999 262.833 214.998 264.092 215.745 265.487C215.864 265.712 215.976 265.94 216.083 266.172C216.586 267.28 216.974 268.437 217.24 269.624C218.425 274.756 217.956 280.129 215.9 284.977C215.53 285.85 215.108 286.701 214.637 287.526C213.999 288.718 213.159 289.791 212.154 290.695C211.378 291.345 210.481 291.837 209.742 292.531C209.004 293.226 208.432 294.209 208.589 295.208C209.257 295.434 209.88 295.779 210.427 296.224C211.709 297.294 212.659 298.708 213.165 300.298C213.356 300.873 213.505 301.461 213.614 302.056C213.753 302.8 213.847 303.552 213.895 304.307C213.92 304.606 213.938 304.913 213.95 305.218C213.958 305.273 213.96 305.329 213.957 305.385L218.321 306.869Z" fill="#2F2E41"/>
<path d="M207.586 211.325L196.051 212.285L193.614 211.716L183.694 205.746L180.929 215.429L193.046 214.151L195.483 214.72L205.784 221.233L207.586 211.325Z" fill="#423ED8"/>
<path d="M200.045 299.595C200.043 299.943 200.026 300.291 199.998 300.636L203.514 301.832C203.899 301.632 204.269 301.405 204.623 301.153L200.045 299.595ZM177.845 60.1724L106.859 268.95L237.871 313.52L308.857 104.743L177.845 60.1724ZM237.245 312.251L108.129 268.325L178.47 61.4416L307.587 105.367L237.245 312.251ZM200.045 299.595C200.043 299.943 200.026 300.291 199.998 300.636L203.514 301.832C203.899 301.632 204.269 301.405 204.623 301.153L200.045 299.595Z" fill="#2F2E41" stroke="#9C37E6" stroke-width="3"/>
<path d="M205.091 180.189C197.618 178.134 190.658 174.538 184.66 169.634C184.303 169.345 184.037 168.958 183.895 168.521C183.754 168.084 183.742 167.616 183.863 167.173L188.847 148.567C189.011 147.957 189.411 147.438 189.959 147.123C190.506 146.808 191.157 146.722 191.769 146.885L233.275 158.01C233.886 158.175 234.407 158.574 234.724 159.121C235.041 159.668 235.128 160.318 234.965 160.927L229.981 179.534C229.864 179.978 229.62 180.378 229.279 180.685C228.938 180.993 228.515 181.195 228.06 181.267C220.415 182.514 212.59 182.147 205.091 180.189Z" fill="#423ED8"/>
<path d="M209.123 165.114C208.815 165.032 208.527 164.889 208.275 164.694L179.07 142.027C178.694 141.734 178.413 141.336 178.265 140.884C178.117 140.432 178.108 139.946 178.24 139.489C178.371 139.032 178.637 138.625 179.003 138.32C179.369 138.016 179.818 137.827 180.292 137.78L216.541 134.152C217.125 134.093 217.711 134.251 218.186 134.596L247.324 155.75C247.708 156.029 248 156.416 248.163 156.861C248.326 157.306 248.352 157.79 248.238 158.25C248.124 158.709 247.875 159.124 247.523 159.442C247.171 159.759 246.731 159.964 246.261 160.031L210.079 165.173C209.76 165.218 209.435 165.198 209.123 165.114Z" fill="#423ED8"/>
<path d="M186.805 171.566C188.503 172.021 190.248 171.018 190.701 169.325C191.155 167.632 190.146 165.89 188.448 165.435C186.75 164.98 185.006 165.984 184.552 167.677C184.099 169.37 185.107 171.111 186.805 171.566Z" fill="#3F3D56"/>
<path opacity="0.2" d="M246.9 158.096L210.718 163.238C210.436 163.278 210.148 163.261 209.873 163.188C209.597 163.114 209.339 162.987 209.114 162.812L179.909 140.145C179.541 139.864 179.278 139.47 179.159 139.023C178.947 139.235 178.782 139.49 178.676 139.771C178.57 140.051 178.525 140.351 178.545 140.65C178.564 140.95 178.647 141.242 178.787 141.507C178.928 141.772 179.124 142.005 179.362 142.189L208.567 164.856C208.792 165.03 209.05 165.158 209.325 165.231C209.601 165.304 209.888 165.321 210.17 165.281L246.353 160.14C246.649 160.098 246.934 159.993 247.187 159.834C247.44 159.674 247.657 159.463 247.822 159.213C247.987 158.964 248.097 158.682 248.145 158.387C248.193 158.092 248.178 157.79 248.1 157.501C247.777 157.826 247.355 158.035 246.9 158.096Z" fill="black"/>
<path d="M187.888 168.558C188.024 168.594 188.169 168.575 188.291 168.505C188.412 168.435 188.501 168.32 188.537 168.184L193.117 151.088L211.662 149.479C211.797 149.518 211.942 149.501 212.065 149.433C212.188 149.364 212.278 149.25 212.316 149.115C212.355 148.98 212.338 148.836 212.269 148.713C212.2 148.59 212.086 148.5 211.95 148.461L193.406 150.07C193.271 150.031 193.129 150.019 192.989 150.036C192.849 150.052 192.715 150.097 192.593 150.167C192.47 150.236 192.363 150.329 192.277 150.44C192.191 150.551 192.128 150.678 192.092 150.814L187.513 167.91C187.476 168.045 187.495 168.19 187.566 168.311C187.636 168.433 187.752 168.521 187.888 168.558Z" fill="#3F3D56"/>
</svg>
